<?xml version="1.0" encoding="iso-8859-1"?>
<!-- Generator: Adobe Illustrator 16.0.0, SVG Export Plug-In . SVG Version: 6.00 Build 0)  -->
<!DOCTYPE svg PUBLIC "-//W3C//DTD SVG 1.1//EN" "http://www.w3.org/Graphics/SVG/1.1/DTD/svg11.dtd">
<svg version="1.1" id="Capa_1" xmlns="http://www.w3.org/2000/svg" xmlns:xlink="http://www.w3.org/1999/xlink" x="0px" y="0px"
	 width="612px" height="612px" viewBox="0 0 612 612" style="enable-background:new 0 0 612 612;" xml:space="preserve">
<g>
	<g>
		<path d="M541.724,188.83H70.286c-3.526,0-6.389,2.862-6.389,6.389v273.058c0,3.527,2.862,6.389,6.389,6.389h471.438
			c3.526,0,6.389-2.861,6.389-6.389V195.219C548.112,191.692,545.254,188.83,541.724,188.83z M535.335,461.888H76.675v-260.28
			h458.66V461.888z"/>
		<path d="M143.329,169.439h44.663c3.527,0,6.389-2.862,6.389-6.389v-40.97c0-3.527-2.862-6.389-6.389-6.389h-44.663
			c-3.527,0-6.389,2.862-6.389,6.389v40.97C136.939,166.58,139.802,169.439,143.329,169.439z M149.718,128.469h31.884v28.191
			h-31.884V128.469z"/>
		<path d="M67.996,163.05c0,3.527,2.862,6.389,6.389,6.389h44.727c3.527,0,6.389-2.862,6.389-6.389v-40.97
			c0-3.527-2.862-6.389-6.389-6.389H74.384c-3.526,0-6.389,2.862-6.389,6.389V163.05z M80.773,128.469h31.948v28.191H80.773V128.469
			z"/>
		<path d="M543.739,115.691H412.844c-3.526,0-6.389,2.862-6.389,6.389v40.97c0,3.527,2.862,6.389,6.389,6.389h130.896
			c3.527,0,6.39-2.862,6.39-6.389v-40.97C550.129,118.553,547.267,115.691,543.739,115.691z M537.351,156.661H419.233v-28.191
			h118.117V156.661L537.351,156.661z"/>
		<path d="M130.305,323.19c0.821,0,1.508-0.057,1.993-0.115l90.37-0.002c7.2-0.221,17.985-5.02,18.186-17.347
			c0.08-5.268,0.042-18.202,0-31.891c-0.044-14.532-0.089-29.559,0-37.28c0.067-5.942-1.674-10.75-5.175-14.286
			c-5.862-5.926-14.392-5.658-16.452-5.488h-85.913c-0.109,0-0.221,0.003-0.333,0.006c-6.392,0.332-18.63,5.028-19.202,20.445
			c-0.486,13.686-0.486,54.444,0,68.155C114.271,318.526,122.989,323.19,130.305,323.19z M126.554,237.699
			c0.249-6.74,4.952-7.945,6.993-8.14h85.98c0.208,0,0.486-0.016,0.697-0.038c0.096-0.01,0.37-0.029,0.767-0.029
			c0.904,0,3.987,0.128,5.603,1.763c1.009,1.019,1.511,2.757,1.482,5.156c-0.09,7.811-0.045,22.885,0,37.462
			c0.042,13.631,0.08,26.508,0,31.651c-0.067,4.038-4.121,4.69-5.604,4.776H131.86c-0.297,0-0.748,0.045-1.042,0.086
			c-0.086,0.012-0.271,0.029-0.514,0.029c-1.326,0-3.546,0-3.75-5.489C126.072,291.406,126.072,251.19,126.554,237.699z"/>
		<path d="M272.371,317.798h202.521c3.526,0,6.389-2.861,6.389-6.389c0-3.525-2.862-6.388-6.389-6.388H272.371
			c-3.526,0-6.389,2.863-6.389,6.388C265.982,314.937,268.841,317.798,272.371,317.798z"/>
		<path d="M113.53,374.706h367.977c3.523,0,6.376-2.855,6.376-6.379s-2.855-6.381-6.376-6.381H113.53
			c-3.524,0-6.376,2.857-6.376,6.381S110.01,374.706,113.53,374.706z"/>
		<path d="M113.53,417.062h367.977c3.523,0,6.376-2.855,6.376-6.379s-2.855-6.379-6.376-6.379H113.53
			c-3.524,0-6.376,2.855-6.376,6.379S110.01,417.062,113.53,417.062z"/>
		<path d="M62.913,498.823c-6.961,0-12.29-1.863-15.832-5.539c-5.856-6.07-5.584-15.504-5.575-15.867v-100.6
			c0-3.527-2.862-6.389-6.389-6.389c-3.526,0-6.389,2.861-6.389,6.389l0.006,100.295c-0.029,0.602-0.591,14.83,9.034,24.924
			c6.053,6.348,14.513,9.568,25.144,9.568c3.526,0,6.389-2.863,6.389-6.389C69.302,501.688,66.443,498.823,62.913,498.823z"/>
		<path d="M611.993,495.899V164.276c0-0.556-0.076-1.096-0.217-1.613c-0.028-31.92-0.028-54.119-0.028-57.859
			c0-29.093-25.496-36.852-40.562-36.852L41.475,67.958l-0.671-0.006c-15.059,0-40.551,7.759-40.551,36.852
			C0.252,121.416,0,495.442,0,495.442c0,0.201,0.01,0.402,0.029,0.604c-0.093,7.076,0.971,24.09,12.226,35.895
			c6.194,7.586,14.295,11.637,24.09,12.041c1.453,0.057,122.599,0.066,223.968,0.066c3.144,0,314.334,0,315.382-0.066
			c9.721-0.404,17.803-4.447,24.029-12.025C610.671,520.54,612.111,504.433,611.993,495.899z M590.367,523.255
			c-0.138,0.141-0.266,0.283-0.391,0.438c-3.948,4.877-8.653,7.268-14.659,7.52c-2.91,0.035-171.725,0.064-315.002,0.064
			c-137.667,0-221.243-0.023-223.457-0.061c-6.121-0.254-10.97-2.707-14.829-7.504c-0.121-0.154-0.252-0.305-0.39-0.445
			c-8.258-8.52-8.925-21.895-8.83-27.363c0-0.262-0.013-0.521-0.032-0.742c0.009-11.758,0.252-374.014,0.252-390.357
			c0-5.648,2.003-24.074,27.773-24.074l529.923,0.003c0.07,0,0.387-0.003,0.46-0.003c25.78,0,27.783,18.426,27.783,24.074
			c0,3.801,0,26.693,0.028,59.479c0,0.553,0.077,1.089,0.218,1.601v330.106C599.292,501.378,598.58,514.823,590.367,523.255z"/>
		<path d="M28.729,230.483c0,3.527,2.862,6.389,6.389,6.389c3.527,0,6.389-2.862,6.389-6.389L41.5,129.616
			c-0.003-0.096-0.275-9.526,5.581-15.599c3.542-3.677,8.871-5.539,15.832-5.539c3.526,0,6.389-2.862,6.389-6.389
			S66.439,95.7,62.913,95.7c-10.631,0-19.094,3.217-25.144,9.567c-9.625,10.095-9.063,24.323-9.041,24.621V230.483z"/>
	</g>
</g>
<g>
</g>
<g>
</g>
<g>
</g>
<g>
</g>
<g>
</g>
<g>
</g>
<g>
</g>
<g>
</g>
<g>
</g>
<g>
</g>
<g>
</g>
<g>
</g>
<g>
</g>
<g>
</g>
<g>
</g>
</svg>
